<svg width="13" height="13" viewBox="0 0 13 13" fill="none" xmlns="http://www.w3.org/2000/svg">
<path d="M1.05414 6.95398C1.01841 6.8466 1.01841 6.73054 1.05414 6.62316C1.77223 4.46267 3.81054 2.9043 6.21281 2.9043C8.61404 2.9043 10.6513 4.46111 11.371 6.62057C11.4072 6.72774 11.4072 6.84371 11.371 6.9514C10.6534 9.11189 8.61508 10.6703 6.21281 10.6703C3.81157 10.6703 1.77379 9.11344 1.05414 6.95398Z" stroke="#AAAAAA" stroke-linecap="round" stroke-linejoin="round"/>
<path d="M7.76605 6.7872C7.76605 7.19913 7.60241 7.59419 7.31113 7.88547C7.01985 8.17675 6.62479 8.34039 6.21286 8.34039C5.80093 8.34039 5.40587 8.17675 5.11459 7.88547C4.82331 7.59419 4.65967 7.19913 4.65967 6.7872C4.65967 6.37527 4.82331 5.98021 5.11459 5.68893C5.40587 5.39765 5.80093 5.23401 6.21286 5.23401C6.62479 5.23401 7.01985 5.39765 7.31113 5.68893C7.60241 5.98021 7.76605 6.37527 7.76605 6.7872Z" stroke="#AAAAAA" stroke-linecap="round" stroke-linejoin="round"/>
</svg>
