<svg width="12" height="12" viewBox="0 0 12 12" fill="none" xmlns="http://www.w3.org/2000/svg">
<path d="M11.2516 0.758431C10.9266 0.433431 10.4016 0.433431 10.0766 0.758431L6.00156 4.8251L1.92656 0.750098C1.60156 0.425098 1.07656 0.425098 0.751563 0.750098C0.426562 1.0751 0.426562 1.6001 0.751563 1.9251L4.82656 6.0001L0.751563 10.0751C0.426562 10.4001 0.426562 10.9251 0.751563 11.2501C1.07656 11.5751 1.60156 11.5751 1.92656 11.2501L6.00156 7.1751L10.0766 11.2501C10.4016 11.5751 10.9266 11.5751 11.2516 11.2501C11.5766 10.9251 11.5766 10.4001 11.2516 10.0751L7.17656 6.0001L11.2516 1.9251C11.5682 1.60843 11.5682 1.0751 11.2516 0.758431Z" fill="#161616"/>
</svg>
