<svg width="2400" height="496" viewBox="0 0 1439 496" fill="none" xmlns="http://www.w3.org/2000/svg">
<g filter="url(#filter0_b_66_36)">
<path d="M-516.5 0L102.25 27.75L411.625 41.625L566.312 48.5625L643.656 52.0312C643.656 52.0312 700.5 27.75 721 27.75C741.5 27.75 798.906 52.0312 798.906 52.0312L876.812 48.5625L1032.62 41.625L1344.25 27.75L1967.5 0V496L1344.25 468L1032.62 454L876.812 447L798.906 443.5C798.906 443.5 737.5 468 721 468C704.5 468 643.656 443.5 643.656 443.5L566.312 447L411.625 454L102.25 468L-516.5 496V0Z" fill="#01CEC9" fill-opacity="0.3"/>
</g>
<defs>
<filter id="filter0_b_66_36" x="-522.5" y="-6" width="2496" height="508" filterUnits="userSpaceOnUse" color-interpolation-filters="sRGB">
<feFlood flood-opacity="0" result="BackgroundImageFix"/>
<feGaussianBlur in="BackgroundImageFix" stdDeviation="3"/>
<feComposite in2="SourceAlpha" operator="in" result="effect1_backgroundBlur_66_36"/>
<feBlend mode="normal" in="SourceGraphic" in2="effect1_backgroundBlur_66_36" result="shape"/>
</filter>
</defs>
</svg>
