<svg width="2400" height="402" viewBox="0 0 1440 402" fill="none" xmlns="http://www.w3.org/2000/svg">
<g filter="url(#filter0_b_109_539)">
<path d="M-521 0L97.75 22.4909L407.125 33.7364L561.812 39.3591L639.156 42.1705C639.156 42.1705 696 22.4909 716.5 22.4909C737 22.4909 794.406 42.1705 794.406 42.1705L872.312 39.3591L1028.12 33.7364L1339.75 22.4909L1963 0V402L1339.75 379.306L1028.12 367.96L872.312 362.286L794.406 359.45C794.406 359.45 731.5 357.384 715 357.384C698.5 357.384 639.156 359.45 639.156 359.45L561.812 362.286L407.125 367.96L97.75 379.306L-521 402V0Z" fill="#01CEC9" fill-opacity="0.3"/>
</g>
<defs>
<filter id="filter0_b_109_539" x="-524" y="-3" width="2490" height="408" filterUnits="userSpaceOnUse" color-interpolation-filters="sRGB">
<feFlood flood-opacity="0" result="BackgroundImageFix"/>
<feGaussianBlur in="BackgroundImageFix" stdDeviation="1.5"/>
<feComposite in2="SourceAlpha" operator="in" result="effect1_backgroundBlur_109_539"/>
<feBlend mode="normal" in="SourceGraphic" in2="effect1_backgroundBlur_109_539" result="shape"/>
</filter>
</defs>
</svg>
