<svg width="1440" height="364" viewBox="0 0 1440 364" fill="none" xmlns="http://www.w3.org/2000/svg">
<g filter="url(#filter0_b_109_620)">
<path d="M-512 0L106.75 27.75L416.125 41.625L570.812 48.5625L648.156 52.0312C648.156 52.0312 705 27.75 725.5 27.75C746 27.75 803.406 52.0312 803.406 52.0312L881.312 48.5625L1037.12 41.625L1348.75 27.75L1972 0V496L1348.75 468L1037.12 454L881.312 447L803.406 443.5C803.406 443.5 742 468 725.5 468C709 468 648.156 443.5 648.156 443.5L570.812 447L416.125 454L106.75 468L-512 496V0Z" fill="#01CEC9" fill-opacity="0.15"/>
</g>
<defs>
<filter id="filter0_b_109_620" x="-518" y="-6" width="2496" height="508" filterUnits="userSpaceOnUse" color-interpolation-filters="sRGB">
<feFlood flood-opacity="0" result="BackgroundImageFix"/>
<feGaussianBlur in="BackgroundImageFix" stdDeviation="3"/>
<feComposite in2="SourceAlpha" operator="in" result="effect1_backgroundBlur_109_620"/>
<feBlend mode="normal" in="SourceGraphic" in2="effect1_backgroundBlur_109_620" result="shape"/>
</filter>
</defs>
</svg>
