<svg width="381" height="354" viewBox="0 0 381 354" fill="none"  xmlns="http://www.w3.org/2000/svg">
<g filter="url(#filter0_d_281_880)">
<path d="M2 16C2 7.71573 8.71573 1 17 1H364C372.284 1 379 7.71573 379 16V336C379 344.284 372.284 351 364 351H17C8.71572 351 2 344.284 2 336V176V163.5V147.5V143.241C2 139.847 3.15051 136.554 5.26364 133.9L14.6008 122.168C18.7017 117.016 18.9626 109.791 15.2441 104.357L4.62039 88.8298C2.91337 86.3349 2 83.3825 2 80.3595V44.75V16Z" fill="#FCFCFC"/>
</g>
<defs>
<filter id="filter0_d_281_880" x="0" y="0" width="381" height="354" filterUnits="userSpaceOnUse" color-interpolation-filters="sRGB">
<feFlood flood-opacity="0" result="BackgroundImageFix"/>
<feColorMatrix in="SourceAlpha" type="matrix" values="0 0 0 0 0 0 0 0 0 0 0 0 0 0 0 0 0 0 127 0" result="hardAlpha"/>
<feOffset dy="1"/>
<feGaussianBlur stdDeviation="1"/>
<feComposite in2="hardAlpha" operator="out"/>
<feColorMatrix type="matrix" values="0 0 0 0 0 0 0 0 0 0 0 0 0 0 0 0 0 0 0.25 0"/>
<feBlend mode="normal" in2="BackgroundImageFix" result="effect1_dropShadow_281_880"/>
<feBlend mode="normal" in="SourceGraphic" in2="effect1_dropShadow_281_880" result="shape"/>
</filter>
</defs>
</svg>
