<svg width="27" height="18" viewBox="0 0 27 18" fill="none" xmlns="http://www.w3.org/2000/svg">
<g clip-path="url(#clip0_156_2297)">
<path fill-rule="evenodd" clip-rule="evenodd" d="M31.5 -9H-4.5V27H31.5V-9Z" stroke="white"/>
<path fill-rule="evenodd" clip-rule="evenodd" d="M25.5 18H19.5C18.675 18 18 17.325 18 16.5C18 15.675 18.675 15 19.5 15H25.5C26.325 15 27 15.675 27 16.5C27 17.325 26.325 18 25.5 18ZM27 1.5C27 2.325 26.325 3 25.5 3H1.5C0.674999 3 0 2.325 0 1.5C0 0.675 0.674999 0 1.5 0H25.5C26.325 0 27 0.675 27 1.5ZM25.5 10.5H10.5C9.675 10.5 9 9.825 9 9C9 8.175 9.675 7.5 10.5 7.5H25.5C26.325 7.5 27 8.175 27 9C27 9.825 26.325 10.5 25.5 10.5Z" fill="#005B58" stroke="white" stroke-width="0.5"/>
</g>
<defs>
<clipPath id="clip0_156_2297">
<rect width="27" height="18" fill="white" transform="matrix(-1 0 0 1 27 0)"/>
</clipPath>
</defs>
</svg>
