<svg width="85" height="17" viewBox="0 0 85 17" fill="none" xmlns="http://www.w3.org/2000/svg">
<path fill-rule="evenodd" clip-rule="evenodd" d="M7.6414 2.27376C7.95873 1.51088 9.04107 1.51088 9.3584 2.27376L10.8332 5.81967L14.661 6.12709C15.4855 6.19296 15.8198 7.22146 15.1915 7.7598L12.2753 10.2581L13.1657 13.9931C13.3576 14.7978 12.4829 15.4332 11.7774 15.0025L8.4999 13.0008L5.22244 15.0025C4.51694 15.4332 3.64215 14.7971 3.83411 13.9931L4.72448 10.2581L1.80828 7.7598C1.17998 7.22146 1.51432 6.19296 2.33882 6.12709L6.16665 5.81967L7.6414 2.27376Z" fill="#FFC700"/>
<path d="M76.1311 2.47847C76.1611 2.40539 76.2121 2.34288 76.2777 2.29888C76.3433 2.25488 76.4205 2.23138 76.4995 2.23138C76.5784 2.23138 76.6556 2.25488 76.7212 2.29888C76.7868 2.34288 76.8378 2.40539 76.8678 2.47847L78.373 6.09876C78.4012 6.1665 78.4475 6.22516 78.5069 6.26827C78.5662 6.31139 78.6363 6.33729 78.7095 6.34313L82.618 6.65622C82.9715 6.68455 83.1146 7.12584 82.8454 7.35605L79.8676 9.90747C79.812 9.95506 79.7705 10.0171 79.7478 10.0866C79.725 10.1562 79.7219 10.2307 79.7387 10.302L80.6489 14.1164C80.6672 14.1929 80.6624 14.2731 80.6351 14.3469C80.6078 14.4208 80.5593 14.4848 80.4956 14.5311C80.432 14.5773 80.356 14.6036 80.2774 14.6067C80.1988 14.6098 80.121 14.5895 80.0539 14.5485L76.707 12.5049C76.6445 12.4667 76.5727 12.4465 76.4995 12.4465C76.4262 12.4465 76.3544 12.4667 76.2919 12.5049L72.945 14.5492C72.8779 14.5903 72.8002 14.6105 72.7215 14.6074C72.6429 14.6043 72.567 14.578 72.5033 14.5318C72.4396 14.4855 72.3911 14.4215 72.3638 14.3477C72.3365 14.2739 72.3318 14.1936 72.35 14.1171L73.2603 10.302C73.2771 10.2308 73.274 10.1562 73.2513 10.0866C73.2285 10.017 73.187 9.95501 73.1313 9.90747L70.1535 7.35605C70.0935 7.30493 70.0501 7.23717 70.0287 7.16134C70.0072 7.08552 70.0088 7.00503 70.0332 6.93009C70.0575 6.85515 70.1035 6.78913 70.1654 6.74037C70.2273 6.69162 70.3023 6.66233 70.3809 6.65622L74.2895 6.34313C74.3626 6.33729 74.4327 6.31139 74.4921 6.26827C74.5514 6.22516 74.5977 6.1665 74.6259 6.09876L76.1311 2.47847Z" stroke="#FFC700" stroke-width="1.4" stroke-linecap="round" stroke-linejoin="round"/>
<path d="M59.1316 2.47847C59.1616 2.40539 59.2126 2.34288 59.2782 2.29888C59.3438 2.25488 59.421 2.23138 59.5 2.23138C59.5789 2.23138 59.6561 2.25488 59.7217 2.29888C59.7873 2.34288 59.8383 2.40539 59.8683 2.47847L61.3735 6.09876C61.4017 6.1665 61.448 6.22516 61.5074 6.26827C61.5667 6.31139 61.6368 6.33729 61.71 6.34313L65.6185 6.65622C65.972 6.68455 66.1151 7.12584 65.8459 7.35605L62.8681 9.90747C62.8124 9.95506 62.771 10.0171 62.7482 10.0866C62.7255 10.1562 62.7224 10.2307 62.7392 10.302L63.6494 14.1164C63.6677 14.1929 63.6629 14.2731 63.6356 14.3469C63.6083 14.4208 63.5598 14.4848 63.4961 14.5311C63.4324 14.5773 63.3565 14.6036 63.2779 14.6067C63.1993 14.6098 63.1215 14.5895 63.0544 14.5485L59.7075 12.5049C59.645 12.4667 59.5732 12.4465 59.5 12.4465C59.4267 12.4465 59.3549 12.4667 59.2924 12.5049L55.9455 14.5492C55.8784 14.5903 55.8006 14.6105 55.722 14.6074C55.6434 14.6043 55.5675 14.578 55.5038 14.5318C55.4401 14.4855 55.3916 14.4215 55.3643 14.3477C55.337 14.2739 55.3322 14.1936 55.3505 14.1171L56.2607 10.302C56.2776 10.2308 56.2745 10.1562 56.2518 10.0866C56.229 10.017 56.1875 9.95501 56.1318 9.90747L53.154 7.35605C53.094 7.30493 53.0506 7.23717 53.0292 7.16134C53.0077 7.08552 53.0093 7.00503 53.0336 6.93009C53.058 6.85515 53.104 6.78913 53.1659 6.74037C53.2278 6.69162 53.3028 6.66233 53.3814 6.65622L57.29 6.34313C57.3631 6.33729 57.4332 6.31139 57.4926 6.26827C57.5519 6.22516 57.5982 6.1665 57.6264 6.09876L59.1316 2.47847Z" stroke="#FFC700" stroke-width="1.4" stroke-linecap="round" stroke-linejoin="round"/>
<path d="M42.1316 2.47847C42.1616 2.40539 42.2126 2.34288 42.2782 2.29888C42.3438 2.25488 42.421 2.23138 42.5 2.23138C42.5789 2.23138 42.6561 2.25488 42.7217 2.29888C42.7873 2.34288 42.8383 2.40539 42.8683 2.47847L44.3735 6.09876C44.4017 6.1665 44.448 6.22516 44.5074 6.26827C44.5667 6.31139 44.6368 6.33729 44.71 6.34313L48.6185 6.65622C48.972 6.68455 49.1151 7.12584 48.8459 7.35605L45.8681 9.90747C45.8124 9.95506 45.771 10.0171 45.7482 10.0866C45.7255 10.1562 45.7224 10.2307 45.7392 10.302L46.6494 14.1164C46.6677 14.1929 46.6629 14.2731 46.6356 14.3469C46.6083 14.4208 46.5598 14.4848 46.4961 14.5311C46.4324 14.5773 46.3565 14.6036 46.2779 14.6067C46.1993 14.6098 46.1215 14.5895 46.0544 14.5485L42.7075 12.5049C42.645 12.4667 42.5732 12.4465 42.5 12.4465C42.4267 12.4465 42.3549 12.4667 42.2924 12.5049L38.9455 14.5492C38.8784 14.5903 38.8006 14.6105 38.722 14.6074C38.6434 14.6043 38.5675 14.578 38.5038 14.5318C38.4401 14.4855 38.3916 14.4215 38.3643 14.3477C38.337 14.2739 38.3322 14.1936 38.3505 14.1171L39.2607 10.302C39.2776 10.2308 39.2745 10.1562 39.2518 10.0866C39.229 10.017 39.1875 9.95501 39.1318 9.90747L36.154 7.35605C36.094 7.30493 36.0506 7.23717 36.0292 7.16134C36.0077 7.08552 36.0093 7.00503 36.0336 6.93009C36.058 6.85515 36.104 6.78913 36.1659 6.74037C36.2278 6.69162 36.3028 6.66233 36.3814 6.65622L40.29 6.34313C40.3631 6.33729 40.4332 6.31139 40.4926 6.26827C40.5519 6.22516 40.5982 6.1665 40.6264 6.09876L42.1316 2.47847Z" stroke="#FFC700" stroke-width="1.4" stroke-linecap="round" stroke-linejoin="round"/>
<path d="M25.1316 2.47847C25.1616 2.40539 25.2126 2.34288 25.2782 2.29888C25.3438 2.25488 25.421 2.23138 25.5 2.23138C25.5789 2.23138 25.6561 2.25488 25.7217 2.29888C25.7873 2.34288 25.8383 2.40539 25.8683 2.47847L27.3735 6.09876C27.4017 6.1665 27.448 6.22516 27.5074 6.26827C27.5667 6.31139 27.6368 6.33729 27.71 6.34313L31.6185 6.65622C31.972 6.68455 32.1151 7.12584 31.8459 7.35605L28.8681 9.90747C28.8124 9.95506 28.771 10.0171 28.7482 10.0866C28.7255 10.1562 28.7224 10.2307 28.7392 10.302L29.6494 14.1164C29.6677 14.1929 29.6629 14.2731 29.6356 14.3469C29.6083 14.4208 29.5598 14.4848 29.4961 14.5311C29.4324 14.5773 29.3565 14.6036 29.2779 14.6067C29.1993 14.6098 29.1215 14.5895 29.0544 14.5485L25.7075 12.5049C25.645 12.4667 25.5732 12.4465 25.5 12.4465C25.4267 12.4465 25.3549 12.4667 25.2924 12.5049L21.9455 14.5492C21.8784 14.5903 21.8006 14.6105 21.722 14.6074C21.6434 14.6043 21.5675 14.578 21.5038 14.5318C21.4401 14.4855 21.3916 14.4215 21.3643 14.3477C21.337 14.2739 21.3322 14.1936 21.3505 14.1171L22.2607 10.302C22.2776 10.2308 22.2745 10.1562 22.2518 10.0866C22.229 10.017 22.1875 9.95501 22.1318 9.90747L19.154 7.35605C19.094 7.30493 19.0506 7.23717 19.0292 7.16134C19.0077 7.08552 19.0093 7.00503 19.0336 6.93009C19.058 6.85515 19.104 6.78913 19.1659 6.74037C19.2278 6.69162 19.3028 6.66233 19.3814 6.65622L23.29 6.34313C23.3631 6.33729 23.4332 6.31139 23.4926 6.26827C23.5519 6.22516 23.5982 6.1665 23.6264 6.09876L25.1316 2.47847Z" stroke="#FFC700" stroke-width="1.4" stroke-linecap="round" stroke-linejoin="round"/>
</svg>
