<svg width="85" height="17" viewBox="0 0 85 17" fill="none" xmlns="http://www.w3.org/2000/svg">
<path fill-rule="evenodd" clip-rule="evenodd" d="M7.6414 2.27376C7.95873 1.51088 9.04107 1.51088 9.3584 2.27376L10.8332 5.81967L14.661 6.12709C15.4855 6.19296 15.8198 7.22146 15.1915 7.7598L12.2753 10.2581L13.1657 13.9931C13.3576 14.7978 12.4829 15.4332 11.7774 15.0025L8.4999 13.0008L5.22244 15.0025C4.51694 15.4332 3.64215 14.7971 3.83411 13.9931L4.72448 10.2581L1.80828 7.7598C1.17998 7.22146 1.51432 6.19296 2.33882 6.12709L6.16665 5.81967L7.6414 2.27376Z" fill="#FFC700"/>
<path fill-rule="evenodd" clip-rule="evenodd" d="M24.6414 2.27376C24.9587 1.51088 26.0411 1.51088 26.3584 2.27376L27.8332 5.81967L31.661 6.12709C32.4855 6.19296 32.8198 7.22146 32.1915 7.7598L29.2753 10.2581L30.1657 13.9931C30.3576 14.7978 29.4829 15.4332 28.7774 15.0025L25.4999 13.0008L22.2224 15.0025C21.5169 15.4332 20.6422 14.7971 20.8341 13.9931L21.7245 10.2581L18.8083 7.7598C18.18 7.22146 18.5143 6.19296 19.3388 6.12709L23.1667 5.81967L24.6414 2.27376Z" fill="#FFC700"/>
<path d="M76.1311 2.47847C76.1611 2.40539 76.2121 2.34288 76.2777 2.29888C76.3433 2.25488 76.4205 2.23138 76.4995 2.23138C76.5784 2.23138 76.6556 2.25488 76.7212 2.29888C76.7868 2.34288 76.8378 2.40539 76.8678 2.47847L78.373 6.09876C78.4012 6.1665 78.4475 6.22516 78.5069 6.26827C78.5662 6.31139 78.6363 6.33729 78.7095 6.34313L82.618 6.65622C82.9715 6.68455 83.1146 7.12584 82.8454 7.35605L79.8676 9.90747C79.812 9.95506 79.7705 10.0171 79.7478 10.0866C79.725 10.1562 79.7219 10.2307 79.7387 10.302L80.6489 14.1164C80.6672 14.1929 80.6624 14.2731 80.6351 14.3469C80.6078 14.4208 80.5593 14.4848 80.4956 14.5311C80.432 14.5773 80.356 14.6036 80.2774 14.6067C80.1988 14.6098 80.121 14.5895 80.0539 14.5485L76.707 12.5049C76.6445 12.4667 76.5727 12.4465 76.4995 12.4465C76.4262 12.4465 76.3544 12.4667 76.2919 12.5049L72.945 14.5492C72.8779 14.5903 72.8002 14.6105 72.7215 14.6074C72.6429 14.6043 72.567 14.578 72.5033 14.5318C72.4396 14.4855 72.3911 14.4215 72.3638 14.3477C72.3365 14.2739 72.3318 14.1936 72.35 14.1171L73.2603 10.302C73.2771 10.2308 73.274 10.1562 73.2513 10.0866C73.2285 10.017 73.187 9.95501 73.1313 9.90747L70.1535 7.35605C70.0935 7.30493 70.0501 7.23717 70.0287 7.16134C70.0072 7.08552 70.0088 7.00503 70.0332 6.93009C70.0575 6.85515 70.1035 6.78913 70.1654 6.74037C70.2273 6.69162 70.3023 6.66233 70.3809 6.65622L74.2895 6.34313C74.3626 6.33729 74.4327 6.31139 74.4921 6.26827C74.5514 6.22516 74.5977 6.1665 74.6259 6.09876L76.1311 2.47847Z" stroke="#FFC700" stroke-width="1.4" stroke-linecap="round" stroke-linejoin="round"/>
<path d="M42.1175 2.24708C42.1474 2.17401 42.1984 2.11149 42.264 2.06749C42.3296 2.02349 42.4068 2 42.4858 2C42.5648 2 42.642 2.02349 42.7076 2.06749C42.7731 2.11149 42.8242 2.17401 42.8541 2.24708L44.3593 5.86738C44.3875 5.93512 44.4338 5.99377 44.4932 6.03689C44.5526 6.08 44.6227 6.10591 44.6958 6.11175L48.6044 6.42483C48.9578 6.45317 49.1009 6.89446 48.8318 7.12467L45.8539 9.67608C45.7983 9.72368 45.7568 9.78567 45.7341 9.85526C45.7113 9.92485 45.7082 9.99936 45.725 10.0706L46.6352 13.885C46.6535 13.9615 46.6487 14.0418 46.6214 14.1156C46.5942 14.1894 46.5456 14.2534 46.4819 14.2997C46.4183 14.3459 46.3423 14.3722 46.2637 14.3753C46.1851 14.3784 46.1073 14.3582 46.0402 14.3171L42.6933 12.2735C42.6308 12.2354 42.559 12.2152 42.4858 12.2152C42.4126 12.2152 42.3407 12.2354 42.2783 12.2735L38.9314 14.3178C38.8643 14.3589 38.7865 14.3791 38.7079 14.376C38.6292 14.3729 38.5533 14.3466 38.4896 14.3004C38.426 14.2541 38.3774 14.1901 38.3502 14.1163C38.3229 14.0425 38.3181 13.9622 38.3364 13.8857L39.2466 10.0706C39.2635 9.99937 39.2604 9.92483 39.2376 9.85522C39.2149 9.78561 39.1734 9.72363 39.1177 9.67608L36.1398 7.12467C36.0799 7.07355 36.0364 7.00579 36.015 6.92996C35.9936 6.85413 35.9951 6.77365 36.0195 6.69871C36.0438 6.62377 36.0899 6.55774 36.1518 6.50899C36.2137 6.46023 36.2887 6.43095 36.3672 6.42483L40.2758 6.11175C40.3489 6.10591 40.419 6.08 40.4784 6.03689C40.5378 5.99377 40.5841 5.93512 40.6123 5.86738L42.1175 2.24708Z" stroke="#FFC700" stroke-width="1.4" stroke-linecap="round" stroke-linejoin="round"/>
<path d="M59.1175 2.24708C59.1474 2.17401 59.1984 2.11149 59.264 2.06749C59.3296 2.02349 59.4068 2 59.4858 2C59.5648 2 59.642 2.02349 59.7076 2.06749C59.7731 2.11149 59.8242 2.17401 59.8541 2.24708L61.3593 5.86738C61.3875 5.93512 61.4338 5.99377 61.4932 6.03689C61.5526 6.08 61.6227 6.10591 61.6958 6.11175L65.6044 6.42483C65.9578 6.45317 66.1009 6.89446 65.8318 7.12467L62.8539 9.67608C62.7983 9.72368 62.7568 9.78567 62.7341 9.85526C62.7113 9.92485 62.7082 9.99936 62.725 10.0706L63.6352 13.885C63.6535 13.9615 63.6487 14.0418 63.6214 14.1156C63.5942 14.1894 63.5456 14.2534 63.4819 14.2997C63.4183 14.3459 63.3423 14.3722 63.2637 14.3753C63.1851 14.3784 63.1073 14.3582 63.0402 14.3171L59.6933 12.2735C59.6308 12.2354 59.559 12.2152 59.4858 12.2152C59.4126 12.2152 59.3407 12.2354 59.2783 12.2735L55.9314 14.3178C55.8643 14.3589 55.7865 14.3791 55.7079 14.376C55.6292 14.3729 55.5533 14.3466 55.4896 14.3004C55.426 14.2541 55.3774 14.1901 55.3502 14.1163C55.3229 14.0425 55.3181 13.9622 55.3364 13.8857L56.2466 10.0706C56.2635 9.99937 56.2604 9.92483 56.2376 9.85522C56.2149 9.78561 56.1734 9.72363 56.1177 9.67608L53.1398 7.12467C53.0799 7.07355 53.0364 7.00579 53.015 6.92996C52.9936 6.85413 52.9951 6.77365 53.0195 6.69871C53.0438 6.62377 53.0899 6.55774 53.1518 6.50899C53.2137 6.46023 53.2887 6.43095 53.3672 6.42483L57.2758 6.11175C57.3489 6.10591 57.419 6.08 57.4784 6.03689C57.5378 5.99377 57.5841 5.93512 57.6123 5.86738L59.1175 2.24708Z" stroke="#FFC700" stroke-width="1.4" stroke-linecap="round" stroke-linejoin="round"/>
</svg>
