<svg width="85" height="17" viewBox="0 0 85 17" fill="none" xmlns="http://www.w3.org/2000/svg">
<path fill-rule="evenodd" clip-rule="evenodd" d="M7.6414 2.27376C7.95873 1.51088 9.04107 1.51088 9.3584 2.27376L10.8332 5.81967L14.661 6.12709C15.4855 6.19296 15.8198 7.22146 15.1915 7.7598L12.2753 10.2581L13.1657 13.9931C13.3576 14.7978 12.4829 15.4332 11.7774 15.0025L8.4999 13.0008L5.22244 15.0025C4.51694 15.4332 3.64215 14.7971 3.83411 13.9931L4.72448 10.2581L1.80828 7.7598C1.17998 7.22146 1.51432 6.19296 2.33882 6.12709L6.16665 5.81967L7.6414 2.27376Z" fill="#FFC700"/>
<path fill-rule="evenodd" clip-rule="evenodd" d="M24.6414 2.27376C24.9587 1.51088 26.0411 1.51088 26.3584 2.27376L27.8332 5.81967L31.661 6.12709C32.4855 6.19296 32.8198 7.22146 32.1915 7.7598L29.2753 10.2581L30.1657 13.9931C30.3576 14.7978 29.4829 15.4332 28.7774 15.0025L25.4999 13.0008L22.2224 15.0025C21.5169 15.4332 20.6422 14.7971 20.8341 13.9931L21.7245 10.2581L18.8083 7.7598C18.18 7.22146 18.5143 6.19296 19.3388 6.12709L23.1667 5.81967L24.6414 2.27376Z" fill="#FFC700"/>
<path fill-rule="evenodd" clip-rule="evenodd" d="M41.6409 2.27376C41.9582 1.51088 43.0406 1.51088 43.3579 2.27376L44.8327 5.81967L48.6605 6.12709C49.485 6.19296 49.8193 7.22146 49.191 7.7598L46.2748 10.2581L47.1652 13.9931C47.3572 14.7978 46.4824 15.4332 45.7769 15.0025L42.4994 13.0008L39.222 15.0025C38.5165 15.4332 37.6417 14.7971 37.8336 13.9931L38.724 10.2581L35.8078 7.7598C35.1795 7.22146 35.5138 6.19296 36.3383 6.12709L40.1662 5.81967L41.6409 2.27376Z" fill="#FFC700"/>
<path fill-rule="evenodd" clip-rule="evenodd" d="M58.6409 2.27376C58.9582 1.51088 60.0406 1.51088 60.3579 2.27376L61.8327 5.81967L65.6605 6.12709C66.485 6.19296 66.8193 7.22146 66.191 7.7598L63.2748 10.2581L64.1652 13.9931C64.3572 14.7978 63.4824 15.4332 62.7769 15.0025L59.4994 13.0008L56.222 15.0025C55.5165 15.4332 54.6417 14.7971 54.8336 13.9931L55.724 10.2581L52.8078 7.7598C52.1795 7.22146 52.5138 6.19296 53.3383 6.12709L57.1662 5.81967L58.6409 2.27376Z" fill="#FFC700"/>
<path d="M76.1311 2.47847C76.1611 2.40539 76.2121 2.34288 76.2777 2.29888C76.3433 2.25488 76.4205 2.23138 76.4995 2.23138C76.5784 2.23138 76.6556 2.25488 76.7212 2.29888C76.7868 2.34288 76.8378 2.40539 76.8678 2.47847L78.373 6.09876C78.4012 6.1665 78.4475 6.22516 78.5069 6.26827C78.5662 6.31139 78.6363 6.33729 78.7095 6.34313L82.618 6.65622C82.9715 6.68455 83.1146 7.12584 82.8454 7.35605L79.8676 9.90747C79.812 9.95506 79.7705 10.0171 79.7478 10.0866C79.725 10.1562 79.7219 10.2307 79.7387 10.302L80.6489 14.1164C80.6672 14.1929 80.6624 14.2731 80.6351 14.3469C80.6078 14.4208 80.5593 14.4848 80.4956 14.5311C80.432 14.5773 80.356 14.6036 80.2774 14.6067C80.1988 14.6098 80.121 14.5895 80.0539 14.5485L76.707 12.5049C76.6445 12.4667 76.5727 12.4465 76.4995 12.4465C76.4262 12.4465 76.3544 12.4667 76.2919 12.5049L72.945 14.5492C72.8779 14.5903 72.8002 14.6105 72.7215 14.6074C72.6429 14.6043 72.567 14.578 72.5033 14.5318C72.4396 14.4855 72.3911 14.4215 72.3638 14.3477C72.3365 14.2739 72.3318 14.1936 72.35 14.1171L73.2603 10.302C73.2771 10.2308 73.274 10.1562 73.2513 10.0866C73.2285 10.017 73.187 9.95501 73.1313 9.90747L70.1535 7.35605C70.0935 7.30493 70.0501 7.23717 70.0287 7.16134C70.0072 7.08552 70.0088 7.00503 70.0332 6.93009C70.0575 6.85515 70.1035 6.78913 70.1654 6.74037C70.2273 6.69162 70.3023 6.66233 70.3809 6.65622L74.2895 6.34313C74.3626 6.33729 74.4327 6.31139 74.4921 6.26827C74.5514 6.22516 74.5977 6.1665 74.6259 6.09876L76.1311 2.47847Z" stroke="#FFC700" stroke-width="1.4" stroke-linecap="round" stroke-linejoin="round"/>
</svg>
