<svg width="85" height="17" viewBox="0 0 85 17" fill="none" xmlns="http://www.w3.org/2000/svg">
<path fill-rule="evenodd" clip-rule="evenodd" d="M7.6414 2.27376C7.95873 1.51088 9.04107 1.51088 9.3584 2.27376L10.8332 5.81967L14.661 6.12709C15.4855 6.19296 15.8198 7.22146 15.1915 7.7598L12.2753 10.2581L13.1657 13.9931C13.3576 14.7978 12.4829 15.4332 11.7774 15.0025L8.4999 13.0008L5.22244 15.0025C4.51694 15.4332 3.64215 14.7971 3.83411 13.9931L4.72448 10.2581L1.80828 7.7598C1.17998 7.22146 1.51432 6.19296 2.33882 6.12709L6.16665 5.81967L7.6414 2.27376Z" fill="#FFC700"/>
<path fill-rule="evenodd" clip-rule="evenodd" d="M24.6414 2.27376C24.9587 1.51088 26.0411 1.51088 26.3584 2.27376L27.8332 5.81967L31.661 6.12709C32.4855 6.19296 32.8198 7.22146 32.1915 7.7598L29.2753 10.2581L30.1657 13.9931C30.3576 14.7978 29.4829 15.4332 28.7774 15.0025L25.4999 13.0008L22.2224 15.0025C21.5169 15.4332 20.6422 14.7971 20.8341 13.9931L21.7245 10.2581L18.8083 7.7598C18.18 7.22146 18.5143 6.19296 19.3388 6.12709L23.1667 5.81967L24.6414 2.27376Z" fill="#FFC700"/>
<path fill-rule="evenodd" clip-rule="evenodd" d="M41.6409 2.27376C41.9582 1.51088 43.0406 1.51088 43.3579 2.27376L44.8327 5.81967L48.6605 6.12709C49.485 6.19296 49.8193 7.22146 49.191 7.7598L46.2748 10.2581L47.1652 13.9931C47.3572 14.7978 46.4824 15.4332 45.7769 15.0025L42.4994 13.0008L39.222 15.0025C38.5165 15.4332 37.6417 14.7971 37.8336 13.9931L38.724 10.2581L35.8078 7.7598C35.1795 7.22146 35.5138 6.19296 36.3383 6.12709L40.1662 5.81967L41.6409 2.27376Z" fill="#FFC700"/>
<path fill-rule="evenodd" clip-rule="evenodd" d="M58.6409 2.27376C58.9582 1.51088 60.0406 1.51088 60.3579 2.27376L61.8327 5.81967L65.6605 6.12709C66.485 6.19296 66.8193 7.22146 66.191 7.7598L63.2748 10.2581L64.1652 13.9931C64.3572 14.7978 63.4824 15.4332 62.7769 15.0025L59.4994 13.0008L56.222 15.0025C55.5165 15.4332 54.6417 14.7971 54.8336 13.9931L55.724 10.2581L52.8078 7.7598C52.1795 7.22146 52.5138 6.19296 53.3383 6.12709L57.1662 5.81967L58.6409 2.27376Z" fill="#FFC700"/>
<path fill-rule="evenodd" clip-rule="evenodd" d="M75.6414 2.27376C75.9587 1.51088 77.0411 1.51088 77.3584 2.27376L78.8332 5.81967L82.661 6.12709C83.4855 6.19296 83.8198 7.22146 83.1915 7.7598L80.2753 10.2581L81.1657 13.9931C81.3576 14.7978 80.4829 15.4332 79.7774 15.0025L76.4999 13.0008L73.2224 15.0025C72.5169 15.4332 71.6422 14.7971 71.8341 13.9931L72.7245 10.2581L69.8083 7.7598C69.18 7.22146 69.5143 6.19296 70.3388 6.12709L74.1667 5.81967L75.6414 2.27376Z" fill="#FFC700"/>
</svg>
