<svg xmlns="http://www.w3.org/2000/svg" width="381" height="404" viewBox="0 0 381 404" fill="none">
<g filter="url(#filter0_d_281_663)">
<path d="M2 16C2 7.71573 8.71573 1 17 1H364C372.284 1 379 7.71573 379 16V386C379 394.284 372.284 401 364 401H17C8.71572 401 2 394.284 2 386V351.168C2 347.819 3.12045 344.567 5.18289 341.929L16.2769 327.739C20.5208 322.311 20.5208 314.689 16.2769 309.261L5.18289 295.071C3.12045 292.433 2 289.181 2 285.832V276V251V236.897V204.5V176V151V137.283V101.641V67V51V16Z" fill="#FCFCFC"/>
</g>
<defs>
<filter id="filter0_d_281_663" x="0" y="0" width="381" height="404" filterUnits="userSpaceOnUse" color-interpolation-filters="sRGB">
<feFlood flood-opacity="0" result="BackgroundImageFix"/>
<feColorMatrix in="SourceAlpha" type="matrix" values="0 0 0 0 0 0 0 0 0 0 0 0 0 0 0 0 0 0 127 0" result="hardAlpha"/>
<feOffset dy="1"/>
<feGaussianBlur stdDeviation="1"/>
<feComposite in2="hardAlpha" operator="out"/>
<feColorMatrix type="matrix" values="0 0 0 0 0 0 0 0 0 0 0 0 0 0 0 0 0 0 0.25 0"/>
<feBlend mode="normal" in2="BackgroundImageFix" result="effect1_dropShadow_281_663"/>
<feBlend mode="normal" in="SourceGraphic" in2="effect1_dropShadow_281_663" result="shape"/>
</filter>
</defs>
</svg>