<svg width="20" height="19" viewBox="0 0 20 19" fill="none" xmlns="http://www.w3.org/2000/svg">
<path d="M6.61914 2.375V4.15625M14.9316 2.375V4.15625M3.65039 14.8438V5.9375C3.65039 5.46508 3.83806 5.01202 4.17211 4.67797C4.50616 4.34392 4.95922 4.15625 5.43164 4.15625H16.1191C16.5916 4.15625 17.0446 4.34392 17.3787 4.67797C17.7127 5.01202 17.9004 5.46508 17.9004 5.9375V14.8438M3.65039 14.8438C3.65039 15.3162 3.83806 15.7692 4.17211 16.1033C4.50616 16.4373 4.95922 16.625 5.43164 16.625H16.1191C16.5916 16.625 17.0446 16.4373 17.3787 16.1033C17.7127 15.7692 17.9004 15.3162 17.9004 14.8438M3.65039 14.8438V8.90625C3.65039 8.43383 3.83806 7.98077 4.17211 7.64672C4.50616 7.31267 4.95922 7.125 5.43164 7.125H16.1191C16.5916 7.125 17.0446 7.31267 17.3787 7.64672C17.7127 7.98077 17.9004 8.43383 17.9004 8.90625V14.8438" stroke="#AAAAAA" stroke-width="1.5" stroke-linecap="round" stroke-linejoin="round"/>
</svg>
