<svg width="22" height="22" viewBox="0 0 22 22" fill="none" xmlns="http://www.w3.org/2000/svg">
<path d="M6.87317 13.9791H4.00767C3.06717 13.9791 2.22475 13.343 2.12483 12.407C2.08324 12.0158 2.06243 11.6226 2.0625 11.2291C2.0625 8.61846 2.97183 6.22046 4.49075 4.33488C4.84642 3.89304 5.3955 3.66663 5.962 3.66663H9.64333C10.0866 3.66636 10.5271 3.73755 10.9478 3.87746L13.8023 4.83079C14.2229 4.97071 14.6634 5.0419 15.1067 5.04163H16.2928M6.87317 13.9791C7.43967 13.9791 7.78158 14.6428 7.53775 15.1543C7.09984 16.0759 6.8734 17.0838 6.875 18.1041C6.875 18.6511 7.0923 19.1757 7.47909 19.5625C7.86589 19.9493 8.39049 20.1666 8.9375 20.1666C9.11984 20.1666 9.2947 20.0942 9.42364 19.9653C9.55257 19.8363 9.625 19.6615 9.625 19.4791V18.8989C9.625 18.3736 9.72583 17.8539 9.92017 17.3662C10.1988 16.6695 10.7727 16.147 11.4354 15.7941C12.4529 15.2512 13.3458 14.5019 14.0571 13.5941C14.5136 13.013 15.1809 12.6041 15.9198 12.6041H16.2717M6.87317 13.9791H8.89167M16.2928 5.04163C16.302 5.08746 16.3185 5.13329 16.3396 5.17729C16.8832 6.27729 17.1875 7.51479 17.1875 8.82288C17.1875 10.186 16.8575 11.472 16.2717 12.6041M16.2928 5.04163C16.2232 4.70704 16.4606 4.35413 16.8199 4.35413H17.6523C18.4672 4.35413 19.2225 4.82896 19.4599 5.60813C19.7707 6.62563 19.9375 7.70454 19.9375 8.82288C19.9375 10.2465 19.6671 11.6059 19.1758 12.8544C18.8953 13.5639 18.1802 13.9791 17.4176 13.9791H16.4523C16.0197 13.9791 15.7694 13.4695 15.994 13.0991C16.0923 12.9374 16.1849 12.7723 16.2717 12.6041" stroke="#AAAAAA" stroke-width="1.5" stroke-linecap="round" stroke-linejoin="round"/>
</svg>
