<svg width="20" height="19" viewBox="0 0 20 19" fill="none" xmlns="http://www.w3.org/2000/svg">
<path d="M2.01142 9.34433C1.95583 9.18704 1.95583 9.01704 2.01142 8.85975C3.12869 5.69517 6.30007 3.41255 10.0377 3.41255C13.7738 3.41255 16.9436 5.6929 18.0632 8.85596C18.1196 9.01293 18.1196 9.1828 18.0632 9.34054C16.9468 12.5051 13.7754 14.7877 10.0377 14.7877C6.30168 14.7877 3.13111 12.5074 2.01142 9.34433Z" stroke="#AAAAAA" stroke-width="1.5" stroke-linecap="round" stroke-linejoin="round"/>
<path d="M12.4543 9.10015C12.4543 9.70352 12.1997 10.2822 11.7465 10.7088C11.2933 11.1355 10.6786 11.3752 10.0377 11.3752C9.39677 11.3752 8.7821 11.1355 8.3289 10.7088C7.8757 10.2822 7.62109 9.70352 7.62109 9.10015C7.62109 8.49677 7.8757 7.91811 8.3289 7.49145C8.7821 7.0648 9.39677 6.82511 10.0377 6.82511C10.6786 6.82511 11.2933 7.0648 11.7465 7.49145C12.1997 7.91811 12.4543 8.49677 12.4543 9.10015Z" stroke="#AAAAAA" stroke-width="1.5" stroke-linecap="round" stroke-linejoin="round"/>
</svg>
