<svg width="22" height="22" viewBox="0 0 22 22" fill="none" xmlns="http://www.w3.org/2000/svg">
<path d="M6.08025 9.39587C6.81909 9.39587 7.4855 8.98704 7.942 8.40587C8.65357 7.49802 9.54682 6.74871 10.5646 6.20587C11.2273 5.85387 11.8021 5.32954 12.0798 4.63379C12.2749 4.14635 12.3751 3.62615 12.375 3.10112V2.52087C12.375 2.33854 12.4474 2.16367 12.5764 2.03474C12.7053 1.90581 12.8802 1.83337 13.0625 1.83337C13.6095 1.83337 14.1341 2.05067 14.5209 2.43747C14.9077 2.82426 15.125 3.34887 15.125 3.89587C15.125 4.95187 14.8867 5.95196 14.4623 6.84571C14.2184 7.35721 14.5603 8.02087 15.1268 8.02087M15.1268 8.02087H17.9923C18.9328 8.02087 19.7753 8.65704 19.8752 9.59296C19.9164 9.97979 19.9375 10.3721 19.9375 10.7709C19.9413 13.2792 19.0841 15.7128 17.5093 17.6651C17.1536 18.107 16.6045 18.3334 16.038 18.3334H12.3567C11.9139 18.3334 11.473 18.2619 11.0523 18.1225L8.19775 17.1692C7.7771 17.0293 7.33665 16.9581 6.89334 16.9584H5.412M15.1268 8.02087H13.0625M5.412 16.9584C5.48809 17.1463 5.57059 17.3296 5.6595 17.5102C5.84009 17.8769 5.588 18.3334 5.18009 18.3334H4.34775C3.53284 18.3334 2.7775 17.8585 2.54009 17.0794C2.22259 16.0373 2.06164 14.9539 2.0625 13.8646C2.0625 12.441 2.33292 11.0816 2.82425 9.83312C3.10475 9.12362 3.81975 8.70837 4.58334 8.70837H5.54859C5.98125 8.70837 6.2315 9.21804 6.00692 9.58837C5.22399 10.8772 4.81106 12.3567 4.81342 13.8646C4.81342 14.9591 5.02609 16.0032 5.41292 16.9584H5.412Z" stroke="#AAAAAA" stroke-width="1.5" stroke-linecap="round" stroke-linejoin="round"/>
</svg>
