<svg width="20" height="20" viewBox="0 0 20 20" fill="none" xmlns="http://www.w3.org/2000/svg">
<path d="M12.843 4.69791C12.843 5.44659 12.5208 6.16461 11.9473 6.69401C11.3739 7.22341 10.596 7.52082 9.78503 7.52082C8.974 7.52082 8.1962 7.22341 7.62272 6.69401C7.04924 6.16461 6.72707 5.44659 6.72707 4.69791C6.72707 3.94923 7.04924 3.23121 7.62272 2.70181C8.1962 2.17241 8.974 1.875 9.78503 1.875C10.596 1.875 11.3739 2.17241 11.9473 2.70181C12.5208 3.23121 12.843 3.94923 12.843 4.69791ZM3.66992 15.3256C3.69613 13.8444 4.35192 12.4321 5.49587 11.3931C6.63983 10.3542 8.18028 9.77198 9.78503 9.77198C11.3898 9.77198 12.9302 10.3542 14.0742 11.3931C15.2181 12.4321 15.8739 13.8444 15.9001 15.3256C13.9817 16.1377 11.8955 16.5568 9.78503 16.5541C7.60287 16.5541 5.53161 16.1145 3.66992 15.3256Z" stroke="#AAAAAA" stroke-width="1.5" stroke-linecap="round" stroke-linejoin="round"/>
</svg>
