<svg width="21" height="21" viewBox="0 0 21 21" fill="none" xmlns="http://www.w3.org/2000/svg">
<path d="M6.3146 9.54363C6.10273 9.1624 5.77027 8.86232 5.3694 8.69049C4.96853 8.51865 4.52195 8.4848 4.09976 8.59424C3.67757 8.70367 3.30367 8.9502 3.03675 9.29513C2.76983 9.64006 2.625 10.0639 2.625 10.5C2.625 10.9361 2.76983 11.3599 3.03675 11.7049C3.30367 12.0498 3.67757 12.2963 4.09976 12.4058C4.52195 12.5152 4.96853 12.4813 5.3694 12.3095C5.77027 12.1377 6.10273 11.8376 6.3146 11.4564M6.3146 9.54363C6.4721 9.82713 6.56222 10.1526 6.56222 10.5C6.56222 10.8474 6.4721 11.1738 6.3146 11.4564M6.3146 9.54363L14.6849 4.89388M6.3146 11.4564L14.6849 16.1061M14.6849 4.89388C14.8076 5.125 14.9751 5.32934 15.1778 5.49494C15.3804 5.66055 15.614 5.7841 15.8649 5.85837C16.1158 5.93264 16.379 5.95615 16.6391 5.92751C16.8992 5.89887 17.151 5.81867 17.3798 5.69158C17.6085 5.5645 17.8097 5.39308 17.9714 5.18737C18.1331 4.98165 18.2522 4.74575 18.3217 4.49346C18.3912 4.24118 18.4097 3.97757 18.3762 3.71805C18.3426 3.45853 18.2576 3.2083 18.1262 2.982C17.8673 2.53605 17.4437 2.2095 16.9466 2.07254C16.4494 1.93558 15.9183 1.99915 15.4676 2.24959C15.0168 2.50002 14.6823 2.91733 14.5359 3.4118C14.3895 3.90627 14.443 4.43843 14.6849 4.89388ZM14.6849 16.1061C14.5593 16.3322 14.4794 16.5808 14.4499 16.8377C14.4204 17.0947 14.4418 17.3549 14.5128 17.6036C14.5839 17.8522 14.7032 18.0845 14.864 18.287C15.0248 18.4896 15.224 18.6585 15.45 18.7841C15.6761 18.9097 15.9247 18.9895 16.1817 19.019C16.4386 19.0485 16.6988 19.0271 16.9475 18.9561C17.1962 18.885 17.4284 18.7657 17.6309 18.6049C17.8335 18.4441 18.0024 18.245 18.128 18.0189C18.3816 17.5623 18.4435 17.0236 18.3 16.5214C18.1565 16.0192 17.8194 15.5946 17.3628 15.3409C16.9062 15.0873 16.3676 15.0254 15.8653 15.1689C15.3631 15.3124 14.9385 15.6495 14.6849 16.1061Z" stroke="#888888" stroke-width="1.5" stroke-linecap="round" stroke-linejoin="round"/>
</svg>
