<svg width="11" height="11" viewBox="0 0 11 11" fill="none" xmlns="http://www.w3.org/2000/svg">
<path d="M7.02244 2.58385C7.02244 2.99563 6.85246 3.39054 6.54988 3.68171C6.24731 3.97288 5.83693 4.13645 5.40902 4.13645C4.98112 4.13645 4.57074 3.97288 4.26817 3.68171C3.96559 3.39054 3.79561 2.99563 3.79561 2.58385C3.79561 2.17208 3.96559 1.77717 4.26817 1.486C4.57074 1.19483 4.98112 1.03125 5.40902 1.03125C5.83693 1.03125 6.24731 1.19483 6.54988 1.486C6.85246 1.77717 7.02244 2.17208 7.02244 2.58385ZM2.18262 8.42909C2.19644 7.61443 2.54245 6.83763 3.14601 6.26623C3.74958 5.69482 4.56234 5.37459 5.40902 5.37459C6.25571 5.37459 7.06847 5.69482 7.67204 6.26623C8.2756 6.83763 8.62161 7.61443 8.63543 8.42909C7.62323 8.87573 6.52256 9.10623 5.40902 9.10478C4.25769 9.10478 3.16487 8.86299 2.18262 8.42909Z" stroke="#26B4AF" stroke-width="0.75" stroke-linecap="round" stroke-linejoin="round"/>
</svg>
